<svg xmlns="http://www.w3.org/2000/svg" version="1.1" xmlns:xlink="http://www.w3.org/1999/xlink" xmlns:svgjs="http://svgjs.dev/svgjs" width="1000" height="623" viewBox="0 0 1000 623"><g transform="matrix(1,0,0,1,-0.6060606060606233,0.2522267206477409)"><svg viewBox="0 0 396 247" data-background-color="#cf5260" preserveAspectRatio="xMidYMid meet" height="623" width="1000" xmlns="http://www.w3.org/2000/svg" xmlns:xlink="http://www.w3.org/1999/xlink"><g id="tight-bounds" transform="matrix(1,0,0,1,0.2400000000000091,-0.09999999999999432)"><svg viewBox="0 0 395.52 247.2" height="247.2" width="395.52"><g><svg></svg></g><g><svg viewBox="0 0 395.52 247.2" height="247.2" width="395.52"><g><g><path xmlns="http://www.w3.org/2000/svg" d="M116.512 243.056c-2.143 2.286-5.239 3.548-9.288 3.787l-4.644 0.357c-4.525 0-7.668-1.072-9.431-3.215-0.873-1.034-1.508-2.456-1.904-4.266h27.709c-0.703 1.259-1.517 2.371-2.442 3.337zM142.947 1.786c10.717-1.191 20.243-1.786 28.578-1.786 19.605 0 39.382 2.494 59.33 7.481l-106.385 0c5.984-2.775 12.143-4.673 18.477-5.695z" fill="#1a1a2e" fill-rule="nonzero" stroke="none" stroke-width="1" stroke-linecap="butt" stroke-linejoin="miter" stroke-miterlimit="10" stroke-dasharray="" stroke-dashoffset="0" font-family="none" font-weight="none" font-size="none" text-anchor="none" style="mix-blend-mode: normal" data-fill-palette-color="tertiary"></path></g></g><g transform="matrix(1,0,0,1,41.12648935944745,37.08)"><svg viewBox="0 0 313.2670212811051 173.04" height="173.04" width="313.2670212811051"><g><svg viewBox="0 0 313.2670212811051 173.04" height="173.04" width="313.2670212811051"><g><svg viewBox="0 0 395.52 218.47426045713817" height="173.04" width="313.2670212811051"><g><svg viewBox="0 0 395.52 218.47426045713817" height="218.47426045713817" width="395.52"><g><svg viewBox="0 0 395.52 218.47426045713817" height="218.47426045713817" width="395.52"><g><svg viewBox="0 0 395.52 158.2998176129934" height="158.2998176129934" width="395.52"><g transform="matrix(1,0,0,1,0,0)"><svg width="395.52" viewBox="2.4941859245300293 -34.599998474121094 132.54580688476562 53.053123474121094" height="158.2998176129934" data-palette-color="#1a1a2e"><path d="M18.3-13.65Q17.35-13.3 16.75-13.3L16.75-13.3Q15.65-13.3 14.68-14.05 13.7-14.8 13.05-16.1L13.05-16.1 14.45-17Q16.85-18.6 18-19.45L18-19.45Q21.85-22.45 24.7-25.05L24.7-25.05Q25.25-25.5 26-26.9L26-26.9 26.7-28.1 25.8-28.55Q25.65-28.6 25.13-28.83 24.6-29.05 24.25-29.1L24.25-29.1Q19.9-29.55 14.5-29.9L14.5-29.9Q12.8-30.05 12.3-28.05L12.3-28.05 8.1-8.6Q7.75-7.1 7.55-5.98 7.35-4.85 7.2-4.1L7.2-4.1 6.75-1.85Q6.55-1.05 6.1-0.58 5.65-0.1 4.8-0.05L4.8-0.05 4.15 0Q3.2 0 2.83-0.45 2.45-0.9 2.5-2.05L2.5-2.05 2.6-4.05Q2.9-9.95 3.35-12.9L3.35-12.9Q3.65-15.05 4.23-17.65 4.8-20.25 5-21.05L5-21.05Q5.7-23.95 6-25.45L6-25.45 3.4-25.9Q2.8-27.2 2.8-28.15L2.8-28.15Q2.8-29.75 4.3-31.4L4.3-31.4Q5.35-32.6 6.8-33.35 8.25-34.1 9.8-34.35L9.8-34.35Q12.05-34.6 13.8-34.6L13.8-34.6Q20.65-34.6 27.7-31.7L27.7-31.7Q28.55-31.35 29.4-30.63 30.25-29.9 30.5-29.7L30.5-29.7Q32.45-28.05 32.45-26.25L32.45-26.25Q32.45-25.05 31.7-23.6L31.7-23.6Q31.3-22.75 30.35-21.65L30.35-21.65Q25.7-16.55 18.3-13.65L18.3-13.65ZM48.55-12.6Q48.4-9 48.05-7.15 47.7-5.3 46.67-3.63 45.65-1.95 43.35 0.25L43.35 0.25 45.1 1.2Q46.7 2.1 47.45 2.45L47.45 2.45Q49.7 3.5 50.85 5.13 52 6.75 52 8.7L52 8.7Q52 11.1 50.4 13.45L50.4 13.45Q48.7 15.95 46.15 17.18 43.6 18.4 40.7 18.45L40.7 18.45Q38.55 18.5 36.3 17.75L36.3 17.75Q35.25 17.4 34.2 16.23 33.15 15.05 32.52 13.6 31.9 12.15 31.95 11.05L31.95 11.05Q32 10.8 32.15 10.53 32.3 10.25 32.5 10.2L32.5 10.2Q32.55 10.15 32.7 10.15L32.7 10.15Q32.85 10.15 33.12 10.28 33.4 10.4 33.5 10.45L33.5 10.45Q33.75 10.55 33.85 10.9L33.85 10.9Q34.55 12.45 35.4 13.35 36.25 14.25 37.65 14.15L37.65 14.15Q42.8 13.8 44.7 11.3L44.7 11.3Q45.35 10.5 45.77 9.47 46.2 8.45 46.2 7.55L46.2 7.55Q46.2 6.25 45.57 5.65 44.95 5.05 43.65 4.8L43.65 4.8Q42.25 4.55 40.97 4.1 39.7 3.65 37.9 2.75L37.9 2.75Q37 2.3 36.65 1.95 36.3 1.6 36.3 1.1L36.3 1.1Q36.3 0.6 36.9-1.45L36.9-1.45Q37-1.75 35.97-2.45 34.95-3.15 34.2-3.6L34.2-3.6Q31.5-5.2 31.5-8.8L31.5-8.8Q31.5-9.8 31.65-10.7L31.65-10.7Q32.55-16.2 37-18.5L37-18.5Q38.05-19.05 39.2-19.05L39.2-19.05Q40.05-19.05 40.95-18.8 41.85-18.55 42-18.5L42-18.5 43.05-18.2Q43.8-18 44.5-18L44.5-18Q45.45-18 46.22-18.35 47-18.7 47.8-19.45L47.8-19.45Q48.95-20.4 50.25-20.4L50.25-20.4Q51.2-20.4 51.95-19.88 52.7-19.35 53.05-18.35L53.05-18.35Q53.15-17.95 53.15-17.7L53.15-17.7Q53.15-17.25 53-17L53-17Q52.85-16.8 52.15-15.7L52.15-15.7Q51.8-15.05 51.5-14.6 51.2-14.15 50.55-13.6L50.55-13.6Q50.1-13.35 49.6-13.23 49.1-13.1 48.82-13 48.55-12.9 48.55-12.6L48.55-12.6ZM38.05-13.35Q36.5-11.55 36.5-9.7L36.5-9.7Q36.5-8.4 37.32-7.23 38.15-6.05 39.85-5.2L39.85-5.2Q41.75-5.95 42.8-7.8 43.85-9.65 43.85-11.85L43.85-11.85Q43.85-13.2 43.45-14.3 43.05-15.4 41.85-16L41.85-16Q39.55-15.1 38.05-13.35L38.05-13.35ZM60.5 1.1Q56.3 1.1 55.15-2.5L55.15-2.5Q55.55-2.5 56.22-2.48 56.9-2.45 57.35-2.35L57.35-2.35Q58.05-2.25 58.35-2.25L58.35-2.25Q60.6-2.25 62.1-4.25L62.1-4.25Q63.15-5.7 63.15-7.2L63.15-7.2Q63.15-8.2 62.65-9.15L62.65-9.15Q61.55-11.1 59.95-13.45L59.95-13.45Q58.9-15 58.05-16.4L58.05-16.4Q57.05-18 57.05-19.95L57.05-19.95Q57.05-21.75 58.07-23.13 59.1-24.5 61.1-24.85L61.1-24.85 62.7-25.15Q65.3-25.65 66.59-25.65L66.59-25.65Q68.75-25.65 70.4-24.65L70.4-24.65Q70.75-24.4 71.12-23.78 71.5-23.15 71.7-22.8L71.7-22.8Q71.34-22.65 70.72-22.33 70.09-22 69.65-21.95L69.65-21.95Q68.95-21.85 67.55-21.85L67.55-21.85Q66.2-21.85 65.5-21.8L65.5-21.8Q63.9-21.65 62.97-20.73 62.05-19.8 62.05-18.5L62.05-18.5Q62.05-17.5 62.65-16.45L62.65-16.45Q64-14.2 66.4-11.3L66.4-11.3Q68.2-9.05 68.2-6.65L68.2-6.65Q68.2-5.35 67.59-3.9L67.59-3.9Q65.55 1.1 60.5 1.1L60.5 1.1ZM72.34 14.1Q72.69 14 73.24 13.83 73.79 13.65 74.19 13.6L74.19 13.6Q77.79 13.5 79.47 12.1 81.14 10.7 81.59 7.15L81.59 7.15Q82.04 3.6 82.49-3.5L82.49-3.5 82.69-6.7Q82.74-7.85 82.27-8.47 81.79-9.1 80.54-9.25L80.54-9.25Q77.84-9.55 75.87-11.35 73.89-13.15 73.14-15.9L73.14-15.9Q72.89-16.75 72.59-17.9L72.59-17.9Q71.99-20.1 71.74-21.2L71.74-21.2 71.74-21.3Q71.74-21.6 71.94-21.98 72.14-22.35 72.34-22.5L72.34-22.5Q73.14-23.05 74.19-23.05L74.19-23.05Q75.59-23.05 76.69-22.08 77.79-21.1 77.94-19.65L77.94-19.65Q78.19-17.4 78.79-14.75L78.79-14.75Q79.04-13.7 79.74-13.7L79.74-13.7Q80.29-13.7 80.69-14.25L80.69-14.25Q81.99-15.9 82.69-17.45L82.69-17.45Q83.54-19.35 85.19-19.35L85.19-19.35Q85.64-19.35 85.84-19.3L85.84-19.3Q88.44-18.8 88.34-16.1L88.34-16.1 88.19-11.45Q87.99-5.25 87.74-2.2L87.74-2.2 87.59-0.2Q87.29 3.9 87.02 6.18 86.74 8.45 86.14 10.75L86.14 10.75Q85.39 13.65 83.39 15.08 81.39 16.5 78.69 16.5L78.69 16.5Q76.54 16.5 74.39 15.65L74.39 15.65Q73.94 15.45 73.34 15.13 72.74 14.8 72.44 14.6L72.44 14.6 72.34 14.1ZM101.69-18.85Q101.69-18.55 101.59-18.07 101.49-17.6 101.54-17.45L101.54-17.45Q104.99-18.2 107.39-18.2L107.39-18.2Q111.14-18.2 113.04-14.6L113.04-14.6Q114.59-11.55 114.59-7.85L114.59-7.85Q114.59-6.9 114.39-5.1L114.39-5.1Q114.24-3.9 113.44-3.18 112.64-2.45 111.54-2.45L111.54-2.45Q110.39-2.45 109.92-2.88 109.44-3.3 109.37-3.85 109.29-4.4 109.29-5.6L109.29-5.6 109.24-6.65Q109.14-9.65 108.84-11.85L108.84-11.85Q108.69-12.75 108.17-13.13 107.64-13.5 106.79-13.5L106.79-13.5Q105.99-13.5 104.89-13.25L104.89-13.25Q103.19-12.8 102.62-12.55 102.04-12.3 100.94-11.5L100.94-11.5Q100.59-11.25 100.44-10.5 100.29-9.75 100.29-9.65L100.29-9.65Q99.64-6.45 98.89-2L98.89-2Q98.84-1.8 98.69-1.05 98.54-0.3 98.12 0.03 97.69 0.35 96.89 0.25L96.89 0.25Q93.74-0.15 93.69-2.4L93.69-2.4Q93.64-5.3 94.14-9.25L94.14-9.25Q94.49-12.1 94.79-13.85L94.79-13.85Q94.89-14.65 95.07-15.8 95.24-16.95 95.39-18.45L95.39-18.45Q95.54-19.6 95.69-20.15 95.84-20.7 96.39-21.08 96.94-21.45 98.09-21.45L98.09-21.45Q99.54-21.45 100.49-20.8 101.44-20.15 101.69-18.95L101.69-18.95 101.69-18.85ZM134.69-5.1Q133.19-3.4 131.64-2.43 130.09-1.45 128.19-1.45L128.19-1.45Q127.79-1.45 127.09-1.55L127.09-1.55 126.09-1.5Q119.79-1.45 116.89-7.5L116.89-7.5Q116.24-8.9 116.24-10.85L116.24-10.85Q116.24-12.55 116.74-14.1 117.24-15.65 118.14-16.65L118.14-16.65 119.09-17.8Q119.79-18.7 120.19-19.05L120.19-19.05Q121.94-20.75 124.84-20.75L124.84-20.75Q126.34-20.75 127.79-20.25 129.24-19.75 130.34-18.9L130.34-18.9Q130.54-18.75 130.74-18.28 130.94-17.8 130.94-17.5L130.94-17.5Q130.94-17.1 130.34-16.63 129.74-16.15 129.24-16.2L129.24-16.2Q125.84-16.6 123.79-14.58 121.74-12.55 121.74-9.05L121.74-9.05Q121.74-6.75 122.71-5.8 123.69-4.85 125.94-4.85L125.94-4.85Q127.34-4.85 128.59-5.43 129.84-6 131.49-7.05L131.49-7.05 132.44-7.65Q132.94-7.9 133.76-7.98 134.59-8.05 135.04-8.1L135.04-8.1Q134.99-7.65 135.01-7.23 135.04-6.8 135.04-6.55L135.04-6.55Q135.04-5.45 134.69-5.1L134.69-5.1Z" opacity="1" transform="matrix(1,0,0,1,0,0)" fill="#1a1a2e" class="undefined-text-0" data-fill-palette-color="primary" id="text-0"></path></svg></g></svg></g><g transform="matrix(1,0,0,1,0,195.67060535579841)"><svg viewBox="0 0 395.52 22.803655101339746" height="22.803655101339746" width="395.52"><g transform="matrix(1,0,0,1,0,0)"><svg width="395.52" viewBox="4.900000095367432 -40.099998474121094 873.199951171875 50.349998474121094" height="22.803655101339746" data-palette-color="#1a1a2e"><path d="M11.5-34.25Q23.75-34.25 23.75-24L23.75-24Q23.75-18.55 20.53-15.98 17.3-13.4 11.45-13.4L11.45-13.4 7.8-13.4 7.8 0 4.9 0 4.9-34.25 11.5-34.25ZM11.45-15.8Q16.05-15.8 18.38-17.65 20.7-19.5 20.7-23.95L20.7-23.95Q20.7-28.15 18.45-30 16.2-31.85 11.55-31.85L11.55-31.85 7.8-31.85 7.8-15.8 11.45-15.8ZM38.5-26.7Q43.25-26.7 45.9-23.2 48.55-19.7 48.55-13.15L48.55-13.15Q48.55-6.7 45.85-3.08 43.15 0.55 38.45 0.55L38.45 0.55Q33.75 0.55 31.1-3.03 28.45-6.6 28.45-13.05L28.45-13.05Q28.45-19.5 31.12-23.1 33.8-26.7 38.5-26.7L38.5-26.7ZM38.5-24.3Q35.1-24.3 33.25-21.53 31.4-18.75 31.4-13.05L31.4-13.05Q31.4-7.4 33.22-4.6 35.05-1.8 38.45-1.8L38.45-1.8Q41.85-1.8 43.7-4.6 45.55-7.4 45.55-13.15L45.55-13.15Q45.55-18.8 43.75-21.55 41.95-24.3 38.5-24.3L38.5-24.3ZM62-26.7Q64.25-26.7 66.05-25.98 67.84-25.25 69.55-23.8L69.55-23.8 68.25-22Q66.65-23.25 65.22-23.83 63.8-24.4 62.1-24.4L62.1-24.4Q59.75-24.4 58.32-23.2 56.9-22 56.9-19.9L56.9-19.9Q56.9-18.05 58.15-16.98 59.4-15.9 62.65-14.85L62.65-14.85Q66.7-13.55 68.45-11.83 70.2-10.1 70.2-7L70.2-7Q70.2-3.55 67.75-1.5 65.3 0.55 61.6 0.55L61.6 0.55Q58.95 0.55 56.9-0.33 54.85-1.2 53.1-2.8L53.1-2.8 54.65-4.5Q56.25-3.15 57.87-2.48 59.5-1.8 61.6-1.8L61.6-1.8Q64.15-1.8 65.72-3.15 67.3-4.5 67.3-6.9L67.3-6.9Q67.3-8.5 66.77-9.47 66.25-10.45 64.92-11.2 63.6-11.95 61.1-12.75L61.1-12.75Q57.3-13.95 55.67-15.6 54.05-17.25 54.05-19.85L54.05-19.85Q54.05-21.8 55.1-23.35 56.15-24.9 57.97-25.8 59.8-26.7 62-26.7L62-26.7ZM86.84-2.95L87.99-1.1Q85.69 0.55 82.99 0.55L82.99 0.55Q80.24 0.55 78.69-1.1 77.14-2.75 77.14-5.75L77.14-5.75 77.14-23.85 73.19-23.85 73.19-26.15 77.14-26.15 77.14-32.4 79.94-32.75 79.94-26.15 85.99-26.15 85.64-23.85 79.94-23.85 79.94-5.85Q79.94-1.85 83.29-1.85L83.29-1.85Q84.99-1.85 86.84-2.95L86.84-2.95ZM109.39-28.3L110.24-25.65Q109.09-25.25 107.57-25.1 106.04-24.95 103.74-24.9L103.74-24.9Q107.79-22.8 107.79-17.75L107.79-17.75Q107.79-13.8 105.49-11.48 103.19-9.15 99.19-9.15L99.19-9.15Q97.54-9.15 96.14-9.7L96.14-9.7Q94.34-8.45 94.34-6.65L94.34-6.65Q94.34-3.85 98.24-3.85L98.24-3.85 101.64-3.85Q105.29-3.85 107.39-2.02 109.49-0.2 109.49 2.75L109.49 2.75Q109.49 6.25 106.89 8.25 104.29 10.25 99.19 10.25L99.19 10.25Q93.94 10.25 91.64 8.43 89.34 6.6 89.34 2.75L89.34 2.75 91.89 2.75Q91.94 5.55 93.54 6.73 95.14 7.9 99.24 7.9L99.24 7.9Q106.69 7.9 106.69 2.9L106.69 2.9Q106.69 0.8 105.27-0.35 103.84-1.5 101.14-1.5L101.14-1.5 98.04-1.5Q94.94-1.5 93.34-2.75 91.74-4 91.74-6.05L91.74-6.05Q91.74-8.6 94.39-10.45L94.39-10.45Q92.34-11.6 91.37-13.43 90.39-15.25 90.39-17.85L90.39-17.85Q90.39-21.85 92.79-24.28 95.19-26.7 99.14-26.7L99.14-26.7Q103.39-26.65 105.37-27.03 107.34-27.4 109.39-28.3L109.39-28.3ZM99.14-24.5Q96.19-24.5 94.69-22.75 93.19-21 93.19-17.85L93.19-17.85Q93.19-14.75 94.79-12.98 96.39-11.2 99.09-11.2L99.09-11.2Q101.94-11.2 103.44-12.88 104.94-14.55 104.94-17.8L104.94-17.8Q104.94-20.95 103.47-22.73 101.99-24.5 99.14-24.5L99.14-24.5ZM124.69-26.7Q125.79-26.7 126.99-26.4L126.99-26.4 126.44-23.75Q125.54-24.05 124.44-24.05L124.44-24.05Q122.04-24.05 120.56-22.13 119.09-20.2 118.14-16.15L118.14-16.15 118.14 0 115.34 0 115.34-26.15 117.74-26.15 117.94-20.55Q118.94-23.65 120.59-25.18 122.24-26.7 124.69-26.7L124.69-26.7ZM149.14-14.05Q149.14-12.95 149.04-11.95L149.04-11.95 133.29-11.95Q133.49-6.7 135.44-4.28 137.39-1.85 140.59-1.85L140.59-1.85Q142.44-1.85 143.86-2.45 145.29-3.05 146.84-4.35L146.84-4.35 148.24-2.6Q146.49-1.05 144.61-0.25 142.74 0.55 140.49 0.55L140.49 0.55Q135.79 0.55 133.09-2.95 130.39-6.45 130.39-12.85L130.39-12.85Q130.39-19.35 132.96-23.03 135.54-26.7 139.99-26.7L139.99-26.7Q144.44-26.7 146.79-23.4 149.14-20.1 149.14-14.05L149.14-14.05ZM146.39-14.15L146.39-14.95Q146.39-19.5 144.79-21.93 143.19-24.35 139.99-24.35L139.99-24.35Q137.09-24.35 135.29-21.9 133.49-19.45 133.29-14.15L133.29-14.15 146.39-14.15ZM162.33-26.7Q164.58-26.7 166.38-25.98 168.18-25.25 169.88-23.8L169.88-23.8 168.58-22Q166.98-23.25 165.56-23.83 164.13-24.4 162.43-24.4L162.43-24.4Q160.08-24.4 158.66-23.2 157.23-22 157.23-19.9L157.23-19.9Q157.23-18.05 158.48-16.98 159.73-15.9 162.98-14.85L162.98-14.85Q167.03-13.55 168.78-11.83 170.53-10.1 170.53-7L170.53-7Q170.53-3.55 168.08-1.5 165.63 0.55 161.93 0.55L161.93 0.55Q159.28 0.55 157.23-0.33 155.18-1.2 153.43-2.8L153.43-2.8 154.98-4.5Q156.58-3.15 158.21-2.48 159.83-1.8 161.93-1.8L161.93-1.8Q164.48-1.8 166.06-3.15 167.63-4.5 167.63-6.9L167.63-6.9Q167.63-8.5 167.11-9.47 166.58-10.45 165.26-11.2 163.93-11.95 161.43-12.75L161.43-12.75Q157.63-13.95 156.01-15.6 154.38-17.25 154.38-19.85L154.38-19.85Q154.38-21.8 155.43-23.35 156.48-24.9 158.31-25.8 160.13-26.7 162.33-26.7L162.33-26.7ZM185.83-34.25L207.08-34.25 206.78-31.7 197.78-31.7 197.78 0 194.93 0 194.93-31.7 185.83-31.7 185.83-34.25ZM220.43-26.7Q225.18-26.7 227.83-23.2 230.48-19.7 230.48-13.15L230.48-13.15Q230.48-6.7 227.78-3.08 225.08 0.55 220.38 0.55L220.38 0.55Q215.68 0.55 213.03-3.03 210.38-6.6 210.38-13.05L210.38-13.05Q210.38-19.5 213.05-23.1 215.72-26.7 220.43-26.7L220.43-26.7ZM220.43-24.3Q217.03-24.3 215.18-21.53 213.33-18.75 213.33-13.05L213.33-13.05Q213.33-7.4 215.15-4.6 216.97-1.8 220.38-1.8L220.38-1.8Q223.78-1.8 225.63-4.6 227.48-7.4 227.48-13.15L227.48-13.15Q227.48-18.8 225.68-21.55 223.88-24.3 220.43-24.3L220.43-24.3ZM250.67-34.25L266.47-34.25 266.12-31.8 253.57-31.8 253.57-18.95 264.47-18.95 264.47-16.55 253.57-16.55 253.57-2.45 266.77-2.45 266.77 0 250.67 0 250.67-34.25ZM277.52 0.55Q275.57 0.55 274.42-0.65 273.27-1.85 273.27-4.1L273.27-4.1 273.27-36.8 276.07-37.15 276.07-4.15Q276.07-1.85 277.97-1.85L277.97-1.85Q278.77-1.85 279.57-2.2L279.57-2.2 280.27-0.15Q279.07 0.55 277.52 0.55L277.52 0.55ZM301.22-5.35Q301.22-3.55 301.67-2.7 302.12-1.85 303.17-1.4L303.17-1.4 302.52 0.55Q300.87 0.15 299.97-0.83 299.06-1.8 298.77-3.7L298.77-3.7Q296.22 0.55 291.52 0.55L291.52 0.55Q288.12 0.55 286.14-1.58 284.17-3.7 284.17-7.25L284.17-7.25Q284.17-11.35 286.81-13.53 289.47-15.7 294.27-15.7L294.27-15.7 298.42-15.7 298.42-18.5Q298.42-21.5 297.17-22.93 295.92-24.35 293.17-24.35L293.17-24.35Q290.31-24.35 286.67-22.85L286.67-22.85 285.87-24.95Q290.02-26.7 293.47-26.7L293.47-26.7Q297.42-26.7 299.31-24.65 301.22-22.6 301.22-18.7L301.22-18.7 301.22-5.35ZM291.97-1.7Q296.22-1.7 298.42-6.5L298.42-6.5 298.42-13.65 294.62-13.65Q287.12-13.65 287.12-7.35L287.12-7.35Q287.12-4.6 288.39-3.15 289.67-1.7 291.97-1.7L291.97-1.7ZM316.46-26.7Q318.71-26.7 320.51-25.98 322.31-25.25 324.01-23.8L324.01-23.8 322.71-22Q321.11-23.25 319.69-23.83 318.26-24.4 316.56-24.4L316.56-24.4Q314.21-24.4 312.79-23.2 311.36-22 311.36-19.9L311.36-19.9Q311.36-18.05 312.61-16.98 313.86-15.9 317.11-14.85L317.11-14.85Q321.16-13.55 322.91-11.83 324.66-10.1 324.66-7L324.66-7Q324.66-3.55 322.21-1.5 319.76 0.55 316.06 0.55L316.06 0.55Q313.41 0.55 311.36-0.33 309.31-1.2 307.56-2.8L307.56-2.8 309.11-4.5Q310.71-3.15 312.34-2.48 313.96-1.8 316.06-1.8L316.06-1.8Q318.61-1.8 320.19-3.15 321.76-4.5 321.76-6.9L321.76-6.9Q321.76-8.5 321.24-9.47 320.71-10.45 319.39-11.2 318.06-11.95 315.56-12.75L315.56-12.75Q311.76-13.95 310.14-15.6 308.51-17.25 308.51-19.85L308.51-19.85Q308.51-21.8 309.56-23.35 310.61-24.9 312.44-25.8 314.26-26.7 316.46-26.7L316.46-26.7ZM341.31-2.95L342.46-1.1Q340.16 0.55 337.46 0.55L337.46 0.55Q334.71 0.55 333.16-1.1 331.61-2.75 331.61-5.75L331.61-5.75 331.61-23.85 327.66-23.85 327.66-26.15 331.61-26.15 331.61-32.4 334.41-32.75 334.41-26.15 340.46-26.15 340.11-23.85 334.41-23.85 334.41-5.85Q334.41-1.85 337.76-1.85L337.76-1.85Q339.46-1.85 341.31-2.95L341.31-2.95ZM347.06-26.15L349.86-26.15 349.86 0 347.06 0 347.06-26.15ZM348.46-37.6Q349.36-37.6 349.93-37 350.51-36.4 350.51-35.55L350.51-35.55Q350.51-34.65 349.93-34.08 349.36-33.5 348.46-33.5L348.46-33.5Q347.56-33.5 346.98-34.08 346.41-34.65 346.41-35.55L346.41-35.55Q346.41-36.4 346.98-37 347.56-37.6 348.46-37.6L348.46-37.6ZM367.5-26.7Q369.45-26.7 371.06-26.08 372.66-25.45 374.16-24.05L374.16-24.05 372.75-22.25Q371.61-23.3 370.36-23.8 369.11-24.3 367.56-24.3L367.56-24.3Q364.25-24.3 362.33-21.48 360.41-18.65 360.41-12.95L360.41-12.95Q360.41-7.3 362.31-4.6 364.2-1.9 367.56-1.9L367.56-1.9Q369.11-1.9 370.36-2.43 371.61-2.95 372.91-4L372.91-4 374.31-2.25Q371.36 0.55 367.5 0.55L367.5 0.55Q362.81 0.55 360.11-2.93 357.41-6.4 357.41-12.9L357.41-12.9Q357.41-19.4 360.13-23.05 362.86-26.7 367.5-26.7L367.5-26.7ZM386.15-26.7Q388.4-26.7 390.2-25.98 392-25.25 393.7-23.8L393.7-23.8 392.4-22Q390.8-23.25 389.38-23.83 387.95-24.4 386.25-24.4L386.25-24.4Q383.9-24.4 382.48-23.2 381.05-22 381.05-19.9L381.05-19.9Q381.05-18.05 382.3-16.98 383.55-15.9 386.8-14.85L386.8-14.85Q390.85-13.55 392.6-11.83 394.35-10.1 394.35-7L394.35-7Q394.35-3.55 391.9-1.5 389.45 0.55 385.75 0.55L385.75 0.55Q383.1 0.55 381.05-0.33 379-1.2 377.25-2.8L377.25-2.8 378.8-4.5Q380.4-3.15 382.03-2.48 383.65-1.8 385.75-1.8L385.75-1.8Q388.3-1.8 389.88-3.15 391.45-4.5 391.45-6.9L391.45-6.9Q391.45-8.5 390.93-9.47 390.4-10.45 389.08-11.2 387.75-11.95 385.25-12.75L385.25-12.75Q381.45-13.95 379.83-15.6 378.2-17.25 378.2-19.85L378.2-19.85Q378.2-21.8 379.25-23.35 380.3-24.9 382.13-25.8 383.95-26.7 386.15-26.7L386.15-26.7ZM418.15-14.05Q418.15-12.95 418.05-11.95L418.05-11.95 402.3-11.95Q402.5-6.7 404.45-4.28 406.4-1.85 409.6-1.85L409.6-1.85Q411.45-1.85 412.88-2.45 414.3-3.05 415.85-4.35L415.85-4.35 417.25-2.6Q415.5-1.05 413.63-0.25 411.75 0.55 409.5 0.55L409.5 0.55Q404.8 0.55 402.1-2.95 399.4-6.45 399.4-12.85L399.4-12.85Q399.4-19.35 401.98-23.03 404.55-26.7 409-26.7L409-26.7Q413.45-26.7 415.8-23.4 418.15-20.1 418.15-14.05L418.15-14.05ZM415.4-14.15L415.4-14.95Q415.4-19.5 413.8-21.93 412.2-24.35 409-24.35L409-24.35Q406.1-24.35 404.3-21.9 402.5-19.45 402.3-14.15L402.3-14.15 415.4-14.15ZM440.3-5.35Q440.3-3.55 440.75-2.7 441.2-1.85 442.25-1.4L442.25-1.4 441.6 0.55Q439.95 0.15 439.05-0.83 438.15-1.8 437.85-3.7L437.85-3.7Q435.3 0.55 430.6 0.55L430.6 0.55Q427.2 0.55 425.22-1.58 423.25-3.7 423.25-7.25L423.25-7.25Q423.25-11.35 425.9-13.53 428.55-15.7 433.35-15.7L433.35-15.7 437.5-15.7 437.5-18.5Q437.5-21.5 436.25-22.93 435-24.35 432.25-24.35L432.25-24.35Q429.4-24.35 425.75-22.85L425.75-22.85 424.95-24.95Q429.1-26.7 432.55-26.7L432.55-26.7Q436.5-26.7 438.4-24.65 440.3-22.6 440.3-18.7L440.3-18.7 440.3-5.35ZM431.05-1.7Q435.3-1.7 437.5-6.5L437.5-6.5 437.5-13.65 433.7-13.65Q426.2-13.65 426.2-7.35L426.2-7.35Q426.2-4.6 427.47-3.15 428.75-1.7 431.05-1.7L431.05-1.7ZM459-26.7Q460.09-26.7 461.3-26.4L461.3-26.4 460.75-23.75Q459.84-24.05 458.75-24.05L458.75-24.05Q456.34-24.05 454.87-22.13 453.39-20.2 452.44-16.15L452.44-16.15 452.44 0 449.64 0 449.64-26.15 452.05-26.15 452.25-20.55Q453.25-23.65 454.89-25.18 456.55-26.7 459-26.7L459-26.7ZM474.79-26.7Q476.74-26.7 478.34-26.08 479.94-25.45 481.44-24.05L481.44-24.05 480.04-22.25Q478.89-23.3 477.64-23.8 476.39-24.3 474.84-24.3L474.84-24.3Q471.54-24.3 469.62-21.48 467.69-18.65 467.69-12.95L467.69-12.95Q467.69-7.3 469.59-4.6 471.49-1.9 474.84-1.9L474.84-1.9Q476.39-1.9 477.64-2.43 478.89-2.95 480.19-4L480.19-4 481.59-2.25Q478.64 0.55 474.79 0.55L474.79 0.55Q470.09 0.55 467.39-2.93 464.69-6.4 464.69-12.9L464.69-12.9Q464.69-19.4 467.42-23.05 470.14-26.7 474.79-26.7L474.79-26.7ZM498.09-26.7Q501.24-26.7 502.96-24.63 504.69-22.55 504.69-18.95L504.69-18.95 504.69 0 501.89 0 501.89-18.55Q501.89-24.4 497.54-24.4L497.54-24.4Q495.39-24.4 493.66-22.95 491.94-21.5 490.34-18.85L490.34-18.85 490.34 0 487.54 0 487.54-36.8 490.34-37.15 490.34-21.75Q491.89-24.1 493.76-25.4 495.64-26.7 498.09-26.7L498.09-26.7ZM514.39 4.4L524.89-40.1 527.29-39.55 516.79 4.95 514.39 4.4ZM548.13-34.8Q553.99-34.8 557.36-30.3 560.74-25.8 560.74-17.1L560.74-17.1Q560.74-8.55 557.36-4 553.99 0.55 548.13 0.55L548.13 0.55Q544.33 0.55 541.49-1.43 538.63-3.4 537.06-7.38 535.49-11.35 535.49-17.05L535.49-17.05Q535.49-22.75 537.06-26.75 538.63-30.75 541.49-32.77 544.33-34.8 548.13-34.8L548.13-34.8ZM548.13-32.3Q543.63-32.3 541.08-28.55 538.53-24.8 538.53-17.05L538.53-17.05Q538.53-9.4 541.11-5.68 543.68-1.95 548.13-1.95L548.13-1.95Q552.74-1.95 555.24-5.65 557.74-9.35 557.74-17.1L557.74-17.1Q557.74-24.85 555.21-28.58 552.68-32.3 548.13-32.3L548.13-32.3ZM578.33-26.7Q582.53-26.7 584.71-23.25 586.88-19.8 586.88-13.2L586.88-13.2Q586.88-6.7 584.53-3.08 582.18 0.55 577.88 0.55L577.88 0.55Q575.78 0.55 574.08-0.43 572.38-1.4 571.23-3L571.23-3 571.23 9.85 568.43 10.25 568.43-26.15 570.88-26.15 571.08-22.4Q573.98-26.7 578.33-26.7L578.33-26.7ZM577.43-1.85Q583.88-1.85 583.88-13.2L583.88-13.2Q583.88-18.9 582.36-21.63 580.83-24.35 577.83-24.35L577.83-24.35Q575.78-24.35 574.18-23.15 572.58-21.95 571.23-19.9L571.23-19.9 571.23-5.75Q573.73-1.85 577.43-1.85L577.43-1.85ZM611.43-14.05Q611.43-12.95 611.33-11.95L611.33-11.95 595.58-11.95Q595.78-6.7 597.73-4.28 599.68-1.85 602.88-1.85L602.88-1.85Q604.73-1.85 606.15-2.45 607.58-3.05 609.13-4.35L609.13-4.35 610.53-2.6Q608.78-1.05 606.9-0.25 605.03 0.55 602.78 0.55L602.78 0.55Q598.08 0.55 595.38-2.95 592.68-6.45 592.68-12.85L592.68-12.85Q592.68-19.35 595.25-23.03 597.83-26.7 602.28-26.7L602.28-26.7Q606.73-26.7 609.08-23.4 611.43-20.1 611.43-14.05L611.43-14.05ZM608.68-14.15L608.68-14.95Q608.68-19.5 607.08-21.93 605.48-24.35 602.28-24.35L602.28-24.35Q599.38-24.35 597.58-21.9 595.78-19.45 595.58-14.15L595.58-14.15 608.68-14.15ZM629.28-26.7Q632.43-26.7 634.15-24.65 635.88-22.6 635.88-18.95L635.88-18.95 635.88 0 633.08 0 633.08-18.55Q633.08-21.55 632-22.98 630.93-24.4 628.78-24.4L628.78-24.4Q626.63-24.4 624.88-22.95 623.13-21.5 621.53-18.85L621.53-18.85 621.53 0 618.73 0 618.73-26.15 621.13-26.15 621.43-21.6Q624.53-26.7 629.28-26.7L629.28-26.7ZM652.42-34.8Q655.22-34.8 657.3-33.85 659.37-32.9 661.32-31L661.32-31 659.67-29.25Q657.92-30.85 656.25-31.58 654.57-32.3 652.47-32.3L652.47-32.3Q649.67-32.3 647.92-30.7 646.17-29.1 646.17-26.5L646.17-26.5Q646.17-23.9 647.72-22.38 649.27-20.85 653.32-19.45L653.32-19.45Q657.92-17.85 660.07-15.65 662.22-13.45 662.22-9.35L662.22-9.35Q662.22-6.55 660.95-4.28 659.67-2 657.32-0.73 654.97 0.55 651.92 0.55L651.92 0.55Q646.12 0.55 641.97-3.75L641.97-3.75 643.62-5.45Q645.52-3.7 647.42-2.83 649.32-1.95 651.87-1.95L651.87-1.95Q655.17-1.95 657.22-3.93 659.27-5.9 659.27-9.25L659.27-9.25Q659.27-11.3 658.6-12.65 657.92-14 656.37-15.03 654.82-16.05 652.02-17.05L652.02-17.05Q647.32-18.7 645.27-20.83 643.22-22.95 643.22-26.4L643.22-26.4Q643.22-28.75 644.4-30.68 645.57-32.6 647.67-33.7 649.77-34.8 652.42-34.8L652.42-34.8ZM686.22-14.05Q686.22-12.95 686.12-11.95L686.12-11.95 670.37-11.95Q670.57-6.7 672.52-4.28 674.47-1.85 677.67-1.85L677.67-1.85Q679.52-1.85 680.95-2.45 682.37-3.05 683.92-4.35L683.92-4.35 685.32-2.6Q683.57-1.05 681.7-0.25 679.82 0.55 677.57 0.55L677.57 0.55Q672.87 0.55 670.17-2.95 667.47-6.45 667.47-12.85L667.47-12.85Q667.47-19.35 670.05-23.03 672.62-26.7 677.07-26.7L677.07-26.7Q681.52-26.7 683.87-23.4 686.22-20.1 686.22-14.05L686.22-14.05ZM683.47-14.15L683.47-14.95Q683.47-19.5 681.87-21.93 680.27-24.35 677.07-24.35L677.07-24.35Q674.17-24.35 672.37-21.9 670.57-19.45 670.37-14.15L670.37-14.15 683.47-14.15ZM708.37-5.35Q708.37-3.55 708.82-2.7 709.27-1.85 710.32-1.4L710.32-1.4 709.67 0.55Q708.02 0.15 707.12-0.83 706.22-1.8 705.92-3.7L705.92-3.7Q703.37 0.55 698.67 0.55L698.67 0.55Q695.27 0.55 693.29-1.58 691.32-3.7 691.32-7.25L691.32-7.25Q691.32-11.35 693.97-13.53 696.62-15.7 701.42-15.7L701.42-15.7 705.57-15.7 705.57-18.5Q705.57-21.5 704.32-22.93 703.07-24.35 700.32-24.35L700.32-24.35Q697.47-24.35 693.82-22.85L693.82-22.85 693.02-24.95Q697.17-26.7 700.62-26.7L700.62-26.7Q704.57-26.7 706.47-24.65 708.37-22.6 708.37-18.7L708.37-18.7 708.37-5.35ZM699.12-1.7Q703.37-1.7 705.57-6.5L705.57-6.5 705.57-13.65 701.77-13.65Q694.27-13.65 694.27-7.35L694.27-7.35Q694.27-4.6 695.54-3.15 696.82-1.7 699.12-1.7L699.12-1.7ZM727.07-26.7Q728.17-26.7 729.37-26.4L729.37-26.4 728.82-23.75Q727.92-24.05 726.82-24.05L726.82-24.05Q724.42-24.05 722.94-22.13 721.47-20.2 720.52-16.15L720.52-16.15 720.52 0 717.72 0 717.72-26.15 720.12-26.15 720.32-20.55Q721.32-23.65 722.97-25.18 724.62-26.7 727.07-26.7L727.07-26.7ZM742.86-26.7Q744.81-26.7 746.41-26.08 748.01-25.45 749.51-24.05L749.51-24.05 748.11-22.25Q746.96-23.3 745.71-23.8 744.46-24.3 742.91-24.3L742.91-24.3Q739.61-24.3 737.69-21.48 735.76-18.65 735.76-12.95L735.76-12.95Q735.76-7.3 737.66-4.6 739.56-1.9 742.91-1.9L742.91-1.9Q744.46-1.9 745.71-2.43 746.96-2.95 748.26-4L748.26-4 749.66-2.25Q746.71 0.55 742.86 0.55L742.86 0.55Q738.16 0.55 735.46-2.93 732.76-6.4 732.76-12.9L732.76-12.9Q732.76-19.4 735.49-23.05 738.21-26.7 742.86-26.7L742.86-26.7ZM766.16-26.7Q769.31-26.7 771.04-24.63 772.76-22.55 772.76-18.95L772.76-18.95 772.76 0 769.96 0 769.96-18.55Q769.96-24.4 765.61-24.4L765.61-24.4Q763.46-24.4 761.74-22.95 760.01-21.5 758.41-18.85L758.41-18.85 758.41 0 755.61 0 755.61-36.8 758.41-37.15 758.41-21.75Q759.96-24.1 761.84-25.4 763.71-26.7 766.16-26.7L766.16-26.7ZM800.26-26.7Q802.51-26.7 804.31-25.98 806.11-25.25 807.81-23.8L807.81-23.8 806.51-22Q804.91-23.25 803.48-23.83 802.06-24.4 800.36-24.4L800.36-24.4Q798.01-24.4 796.58-23.2 795.16-22 795.16-19.9L795.16-19.9Q795.16-18.05 796.41-16.98 797.66-15.9 800.91-14.85L800.91-14.85Q804.96-13.55 806.71-11.83 808.46-10.1 808.46-7L808.46-7Q808.46-3.55 806.01-1.5 803.56 0.55 799.86 0.55L799.86 0.55Q797.21 0.55 795.16-0.33 793.11-1.2 791.36-2.8L791.36-2.8 792.91-4.5Q794.51-3.15 796.13-2.48 797.76-1.8 799.86-1.8L799.86-1.8Q802.41-1.8 803.98-3.15 805.56-4.5 805.56-6.9L805.56-6.9Q805.56-8.5 805.03-9.47 804.51-10.45 803.18-11.2 801.86-11.95 799.36-12.75L799.36-12.75Q795.56-13.95 793.93-15.6 792.31-17.25 792.31-19.85L792.31-19.85Q792.31-21.8 793.36-23.35 794.41-24.9 796.23-25.8 798.06-26.7 800.26-26.7L800.26-26.7ZM831.25-26.15L823.15 0.1Q821.8 4.6 819.7 6.93 817.6 9.25 813.45 10.2L813.45 10.2 813.1 8Q815.45 7.35 816.8 6.4 818.15 5.45 818.95 4 819.75 2.55 820.6 0L820.6 0 819.6 0 811.45-26.15 814.35-26.15 821.45-2.1 828.35-26.15 831.25-26.15ZM847.3-26.7Q850.45-26.7 852.18-24.65 853.9-22.6 853.9-18.95L853.9-18.95 853.9 0 851.1 0 851.1-18.55Q851.1-21.55 850.03-22.98 848.95-24.4 846.8-24.4L846.8-24.4Q844.65-24.4 842.9-22.95 841.15-21.5 839.55-18.85L839.55-18.85 839.55 0 836.75 0 836.75-26.15 839.15-26.15 839.45-21.6Q842.55-26.7 847.3-26.7L847.3-26.7ZM871.3-26.7Q873.25-26.7 874.85-26.08 876.45-25.45 877.95-24.05L877.95-24.05 876.55-22.25Q875.4-23.3 874.15-23.8 872.9-24.3 871.35-24.3L871.35-24.3Q868.05-24.3 866.12-21.48 864.2-18.65 864.2-12.95L864.2-12.95Q864.2-7.3 866.1-4.6 868-1.9 871.35-1.9L871.35-1.9Q872.9-1.9 874.15-2.43 875.4-2.95 876.7-4L876.7-4 878.1-2.25Q875.15 0.55 871.3 0.55L871.3 0.55Q866.6 0.55 863.9-2.93 861.2-6.4 861.2-12.9L861.2-12.9Q861.2-19.4 863.92-23.05 866.65-26.7 871.3-26.7L871.3-26.7Z" opacity="1" transform="matrix(1,0,0,1,0,0)" fill="#1a1a2e" class="undefined-text-1" data-fill-palette-color="secondary" id="text-1"></path></svg></g></svg></g></svg></g></svg></g><g></g></svg></g></svg></g></svg></g></svg></g><defs></defs></svg><rect width="395.52" height="247.2" fill="none" stroke="none" visibility="hidden"></rect></g></svg></g></svg>